Coordinates
version=1
nRows=12
nColumns=34
inDegrees=yes

Units are S.I. units (second, meters, Newtons, ...)
If the header above contains a line with 'inDegrees', this indicates whether rotational values are in degrees (yes) or radians (no).

endheader
time	pelvis_tilt	pelvis_list	pelvis_rotation	pelvis_tx	pelvis_ty	pelvis_tz	hip_flexion_l	hip_adduction_l	hip_rotation_l	hip_flexion_r	hip_adduction_r	hip_rotation_r	knee_angle_l_beta	knee_angle_r_beta	knee_angle_l	knee_angle_r	ankle_angle_l	ankle_angle_r	subtalar_angle_l	subtalar_angle_r	mtp_angle_l	mtp_angle_r	lumbar_ext	lumbar_bend	lumbar_rota	shoulder_flexion_r	shoulder_adduction_r	shoulder_rotation_r	elbow_flexion_r	shoulder_flexion_l	shoulder_adduction_l	shoulder_rotation_l	elbow_flexion_l
      0.48000000	     18.73662282	     -2.56053683	     -3.64023312	      0.52620761	      1.05810062	     -0.26855075	    -32.73937771	      2.07654938	     -4.56741997	      1.55908459	      0.03419834	     -7.34310104	     -0.01289133	      0.23584349	      0.73861875	    -13.51283654	     15.07124365	      9.47191308	      8.09152428	      8.21195710	    -10.03088910	    -10.35479321	    -36.93152190	      1.85372231	      0.88186447	    -12.93652170	      6.60707186	    -32.48597412	     35.59454538	     13.88548796	     -3.90525613	     -4.10033512	     42.84426314
      0.49000000	     19.51305916	     -2.94525698	     -3.34223484	      0.53886378	      1.05697317	     -0.26827249	    -34.39979292	      1.67465139	     -5.42019268	      0.25391876	      0.68867926	     -7.43855701	     -0.01416727	      0.17161067	      0.81172463	     -9.83256697	     15.62417183	      8.66126958	      9.39283531	      8.64691421	     -9.49791911	     -9.00674794	    -37.61312634	      2.40575083	      1.49789288	    -13.63258185	      6.92564384	    -33.67819983	     35.40715408	     15.17304651	     -4.02822862	     -2.90527645	     42.60409151
      0.50000000	     19.61506320	     -2.76832983	     -3.15763813	      0.55127211	      1.05481236	     -0.26779868	    -35.12923457	      1.75182303	     -5.43772158	     -0.13465541	      0.78250651	     -7.18228874	     -0.01002544	      0.11620279	      0.57441517	     -6.65792930	     16.03374070	      8.24275929	      9.73336457	      8.85813754	     -9.24441880	     -8.88613328	    -37.60559085	      2.44534052	      1.27715698	    -13.95686258	      7.07451974	    -33.95105366	     34.86442372	     15.96393903	     -4.30246641	     -2.67445770	     42.88532166
      0.51000000	     19.81746342	     -2.66307143	     -3.02797677	      0.56383385	      1.05273737	     -0.26715219	    -35.94870691	      1.77349330	     -5.69048719	     -0.65182711	      0.92260190	     -6.99985255	     -0.00447771	      0.06471650	      0.25655387	     -3.70798223	     16.49765601	      7.78251050	     10.43275878	      9.28077985	     -8.88377740	     -8.75856135	    -37.69886767	      2.49764748	      1.27529388	    -14.35349993	      7.24251672	    -34.32591555	     34.48213492	     16.80591752	     -4.50081649	     -2.37387817	     43.06594979
      0.52000000	     19.95586932	     -2.41980401	     -2.81328448	      0.57641389	      1.05062347	     -0.26665576	    -36.61533493	      1.84357229	     -5.74274190	     -1.07060245	      0.89132838	     -6.82576019	      0.00349040	      0.01932256	     -0.19998538	     -1.10710106	     16.91581084	      7.40901985	     11.04720672	      9.53429227	     -8.60190147	     -8.89693503	    -37.71914261	      2.48201233	      1.07615523	    -14.68473772	      7.37915776	    -34.53252599	     34.05377730	     17.58224067	     -4.69905187	     -2.20498268	     43.23822312
      0.53000000	     19.91137068	     -2.15843098	     -2.78102101	      0.58912583	      1.04824008	     -0.26578691	    -37.05187947	      1.99432307	     -5.73212530	     -1.19979550	      0.81677571	     -6.47135366	      0.01345953	     -0.01771295	     -0.77117419	      1.01487754	     17.29773485	      7.16580276	     11.29286307	      9.88042627	     -8.43816602	     -9.09384209	    -37.54979455	      2.35137961	      0.94136066	    -14.97939036	      7.48971113	    -34.64719446	     33.71551538	     18.23008062	     -4.85156049	     -2.22382434	     43.43179485
      0.54000000	     20.37269703	     -2.18521749	     -2.35477948	      0.60223286	      1.04674901	     -0.26534467	    -38.03720538	      1.63938712	     -6.08575403	     -1.99459902	      1.04516823	     -6.78394360	      0.02409653	     -0.05073258	     -1.38062958	      2.90676265	     17.74910808	      6.68058584	     12.81734244	     10.01423054	     -7.85197254	     -9.54593286	    -37.88237986	      2.66207546	      0.89294151	    -15.39790921	      7.63873276	    -34.83336098	     33.51170278	     18.96604242	     -4.92261363	     -2.05706282	     43.51834580
      0.55000000	     20.49826973	     -2.03437368	     -2.04502746	      0.61516127	      1.04495671	     -0.26483603	    -38.54612592	      1.48092147	     -5.91090352	     -2.25932366	      1.05047447	     -6.86657562	      0.03811902	     -0.07265288	     -2.18405901	      4.16270353	     18.02775628	      6.34078094	     13.37165344	     10.01097895	     -7.61613843	     -9.81038643	    -37.91642630	      2.78624284	      0.66804175	    -15.66689654	      7.71621053	    -34.81827562	     33.26220456	     19.52596366	     -4.99817874	     -2.19467621	     43.72881974
      0.56000000	     20.46889001	     -2.00142946	     -1.95383371	      0.62833475	      1.04306459	     -0.26401664	    -38.92371327	      1.34529482	     -5.81814847	     -2.22216413	      1.13684878	     -6.74416015	      0.05179861	     -0.08321063	     -2.96784150	      4.76761769	     17.98375167	      6.33170010	     13.53247886	     10.09394925	     -7.52310592	     -9.87743135	    -37.81378593	      2.91762981	      0.73731260	    -15.95146010	      7.74698073	    -34.80297902	     33.10785282	     19.99377210	     -4.98021720	     -2.38066196	     43.96814848
      0.57000000	     20.82384690	     -2.18859720	     -1.38044311	      0.64173617	      1.04208925	     -0.26381981	    -39.58114026	      0.69214237	     -5.90266635	     -2.71150860	      1.47441687	     -7.36688147	      0.07021171	     -0.09004109	     -4.02283465	      5.15897455	     18.41072585	      5.70983783	     14.74583409	     10.01513952	     -7.13474748	    -10.18935015	    -38.09836452	      3.50557341	      0.41293825	    -16.17302573	      7.75485125	    -34.68668957	     33.01640723	     20.28275908	     -4.99222598	     -2.85798881	     44.31612504
      0.58000000	     20.91542720	     -2.30668712	     -1.14118861	      0.65498631	      1.04091576	     -0.26322488	    -39.92179988	      0.30938374	     -5.78481946	     -2.68618788	      1.67712064	     -7.58318634	      0.08939994	     -0.08367611	     -5.12223922	      4.79428786	     18.36837405	      5.41939542	     15.02070816	      9.95615688	     -6.95212175	    -10.19231305	    -38.18839115	      3.88136241	      0.46233637	    -16.38759310	      7.75256676	    -34.60175237	     33.02815688	     20.61372216	     -4.88088843	     -3.22572266	     44.56499361
      0.59000000	     20.98315209	     -2.63673456	     -0.71365020	      0.66872811	      1.04001852	     -0.26296898	    -40.19932547	     -0.38759451	     -5.71511736	     -2.64838246	      2.08259711	     -8.08897703	      0.11068411	     -0.07136740	     -6.34173218	      4.08905061	     18.26186068	      4.96993090	     15.60347927	      9.88147082	     -6.62161697	    -10.03659009	    -38.25000118	      4.58349181	      0.36185559	    -16.55969902	      7.66086224	    -34.48924485	     33.06753198	     20.66444550	     -4.76811954	     -3.85932759	     45.03857508
